<?xml version="1.0" encoding="utf-8"?>
<!-- Generator: Adobe Illustrator 16.0.0, SVG Export Plug-In . SVG Version: 6.00 Build 0)  -->
<!DOCTYPE svg PUBLIC "-//W3C//DTD SVG 1.1//EN" "http://www.w3.org/Graphics/SVG/1.1/DTD/svg11.dtd">
<svg version="1.1" id="Layer_1" xmlns="http://www.w3.org/2000/svg" xmlns:xlink="http://www.w3.org/1999/xlink" x="0px" y="0px"
	 width="288px" height="288px" viewBox="0 0 288 288" enable-background="new 0 0 288 288" xml:space="preserve">
<path fill="#EF5A59" d="M158.728,77.585c0,0,14.75,10.334,15.417,23.083c0,0,3.333,15.166-4.667,26.25l1.75,1.168
	c0,0,8.168-10.742,5.334-26.742c0,0-1.25-15.414-16.75-25.664L158.728,77.585z"/>
<path fill="#EF5A59" d="M105.088,114.069c0,0-3.298-15.174,4.728-26.239l-1.748-1.172c0,0-8.193,10.723-5.396,26.729
	c0,0,1.215,15.416,16.691,25.703l1.088-1.902C120.452,137.188,105.726,126.819,105.088,114.069z"/>
<path fill="#EF5A59" d="M153.895,69.763l2.5,0.667l-1.667,7.417c0,0,0,1.833,1.167,1.833c0,0,7.084,5,11.167,11.167
	c0,0,5.916,8.5,3.916,22.25c0,0-1.288,5.594-3.034,10.08c0,0-1.299,1.25-1.799,4.334c0,0-3.083,15.248-4,17.248
	c0,0-0.083,3.334-2.583,3l4.166-17.75c0,0,3.084-9.746-4.416-18.25c0,0-9.25-8.838-9.167-18.254c0,0,1.932-12.458,2.167-13.917
	S153.895,69.763,153.895,69.763z"/>
<polygon fill="#EF5A59" points="155.644,124.897 153.706,147.782 155.644,147.782 157.769,124.897 "/>
<path fill="#EF5A59" d="M147.894,124.897v22.375c0,0,0.5,2.188,1.938,0v-22.375H147.894z"/>
<path fill="#EF5A59" d="M139.956,124.897l1.875,21.563c0,0,0.313,2.625,2.063,1.063l-1.969-22.625H139.956z"/>
<path fill="#EF5A59" d="M120.894,147.782l2.25-10.613c0,0,0.167-0.334-1.125-1.416c0,0-8.208-5.918-10.542-10.168
	c0,0-4.417-7.584-5.167-13.916c0,0-0.167-7.568,0.333-9.785c0,0,2-7.715,3.583-9.882c0,0,1.667-3.167,1.417-4.417
	c0,0,2.667-9.5,5.833-14.167c0,0,3.166-4.167,6.083-6.083c0,0,3.083-2.25,8.75-1.333c0,0,6.667,2.334,11,12.417
	c0,0,4,9.167,3.333,15.5c0,0-0.417,4.834-1.75,7.5c0,0-1.667,5.25-6,8.834c0,0-4.583,5.916-5.167,10.166c0,0-1,6.25,0.5,11.666
	l3.25,15.697c0,0-2.083,0.803-2.333-1.279l-3.25-15.75c0,0-1.167-7.584-0.5-10.918c0,0,2.083-6.418,4.417-9.416
	c0,0,5.396-5.5,6.115-7.917c0,0,4.135-8.333,1.719-16.25c0,0-2.083-8.167-5.667-12.417c0,0-4.417-5.5-7.667-5.667
	c0,0-4.417-0.667-8.333,3.583c0,0-4.417,5.083-5.167,7.583c0,0-3.25,7.833-3.25,10.417c0,0-0.583,5.334,0.75,8.667
	c0,0,1.083,3.083,2.083,4.833c0,0,2,3.167,4,4.75c0,0,4.083,4.751,4.333,5.751c0,0,2.667,5,2.667,9.5c0,0,0.048,5.25-0.893,7.666
	l-1.441,7.084l-1.917,8.666C123.144,146.669,123.477,147.979,120.894,147.782z"/>
<path fill="#EF5A59" d="M111.644,87.585c0,0,6.742-31.305,25.559-18.246l-1.059,0.424l-2.688-1.553l-5.188-0.875l-4.938,2.125
	l-5.688,7.409l-3.125,6.216L111.644,87.585z"/>
<path fill="#EF5A59" d="M118.706,71.697c0,0,10.563-13.611,20.188-0.299l-3-1.313l-3.813-2.938l-5.58,0.188L118.706,71.697z"/>
<path fill="#EF5A59" d="M133.019,75.085c0,0,4.438,4.896,5.438,11.167c0,0,1.805,9.021-1.254,13.958l-1.496-1.313
	c0,0,1.688-6.25,0.813-10.312c0,0-0.438-4.438-2.563-7.875c0,0-1.813-3.438-2.625-4.188L133.019,75.085z"/>
<path fill="#EF5A59" d="M109.065,120.751c0,0-7.363-15.479,0.358-27.28l1.596,12.239l0.625,13.75L109.065,120.751z"/>
<path fill="none" d="M92.333,108.756c0,0,43.796-127.272,93.334,0l-20.822,45.578h-47.256L92.333,108.756z"/>
<text transform="matrix(0.4597 -0.9735 0.9043 0.427 97.272 96.4849)" fill="#6BC070" font-family="'Pristina-Regular'" font-size="12">S</text>
<text transform="matrix(0.5044 -0.951 0.8834 0.4686 100.2222 90.1675)" fill="#6BC070" font-family="'Pristina-Regular'" font-size="12">H</text>
<text transform="matrix(0.5602 -0.9193 0.854 0.5203 104.4063 82.2754)" fill="#6BC070" font-family="'Pristina-Regular'" font-size="12">A</text>
<text transform="matrix(0.6288 -0.8738 0.8117 0.5841 108.6064 75.314)" fill="#6BC070" font-family="'Pristina-Regular'" font-size="12">H</text>
<text transform="matrix(0.7016 -0.8165 0.7584 0.6518 113.8408 68.1284)" fill="#6BC070" font-family="'Pristina-Regular'" font-size="12">J</text>
<text transform="matrix(0.7837 -0.738 0.6856 0.728 117.3125 63.9575)" fill="#6BC070" font-family="'Pristina-Regular'" font-size="12">E</text>
<text transform="matrix(0.8995 -0.5914 0.5494 0.8356 122.7134 58.7754)" fill="#6BC070" font-family="'Pristina-Regular'" font-size="12">E</text>
<text transform="matrix(0.9791 -0.4475 0.4157 0.9095 129.0371 54.8184)" fill="#6BC070" font-family="'Pristina-Regular'" font-size="12"> </text>
<text transform="matrix(1.0528 -0.2248 0.2089 0.9779 130.6392 53.6084)" fill="#6BC070" font-family="'Pristina-Regular'" font-size="12">R</text>
<text transform="matrix(1.0622 0.1752 -0.1628 0.9867 138.9399 51.8311)" fill="#6BC070" font-family="'Pristina-Regular'" font-size="12">E</text>
<text transform="matrix(0.9664 0.4743 -0.4406 0.8977 146.0762 53.0239)" fill="#6BC070" font-family="'Pristina-Regular'" font-size="12">S</text>
<text transform="matrix(0.8465 0.6651 -0.6178 0.7864 152.0615 55.9463)" fill="#6BC070" font-family="'Pristina-Regular'" font-size="12">T</text>
<text transform="matrix(0.7321 0.7893 -0.7332 0.68 157.623 60.2944)" fill="#6BC070" font-family="'Pristina-Regular'" font-size="12">A</text>
<text transform="matrix(0.6314 0.872 -0.81 0.5865 163.1035 66.1724)" fill="#6BC070" font-family="'Pristina-Regular'" font-size="12">U</text>
<text transform="matrix(0.5532 0.9235 -0.8579 0.5139 168.6582 73.8931)" fill="#6BC070" font-family="'Pristina-Regular'" font-size="12">R</text>
<text transform="matrix(0.4983 0.9542 -0.8864 0.4629 173.2617 81.6147)" fill="#6BC070" font-family="'Pristina-Regular'" font-size="12">A</text>
<text transform="matrix(0.455 0.9757 -0.9063 0.4226 177.0488 88.8638)" fill="#6BC070" font-family="'Pristina-Regular'" font-size="12">N</text>
<text transform="matrix(0.4214 0.9906 -0.9202 0.3914 180.832 97.0166)" fill="#6BC070" font-family="'Pristina-Regular'" font-size="12">T</text>
<path fill="none" stroke="#F4E902" stroke-miterlimit="10" d="M96,107.877c0,0,40.334-121.23,86.667,0l-19.334,46.457h-43.881
	L96,107.877z"/>
</svg>
